<svg height="512" viewBox="0 0 58 58" width="512" xmlns="http://www.w3.org/2000/svg"><g id="083---Garage-Sale" fill="none" fill-rule="evenodd" transform="translate(0 -1)"><path id="Shape" d="m44.31 9h11.69c1.1032019-.0032948 1.9967052-.89679813 2-2v-4c-.0032948-1.10320187-.8967981-1.9967052-2-2h-54c-1.10320187.0032948-1.9967052.89679813-2 2v4c.0032948 1.10320187.89679813 1.9967052 2 2z" fill="#56595e" fill-rule="nonzero"/><path id="Shape" d="m26.67 9h-23.67v49c0 .5522847.44771525 1 1 1h50c.5522847 0 1-.4477153 1-1v-49h-10.69" fill="#a5a5a4" fill-rule="nonzero"/><path id="Shape" d="m50 26.01v-.01" stroke="#000" stroke-linecap="round" stroke-linejoin="round" stroke-width="2"/><g fill-rule="nonzero"><path id="Shape" d="m50 32.33v26.67h-42v-37h28.86z" fill="#464f5d"/><path id="Shape" d="m36.86 22h-28.86v-4h23.77z" fill="#3f5c6c"/><path id="Shape" d="m31.77 18h-23.77v-3c0-.5522847.44771525-1 1-1h17.68z" fill="#547580"/><path id="Shape" d="m27 49v-5h18v15h-18" fill="#a56a43"/><path id="Shape" d="m36 34.66 1.58-4.21c.1960218-.5110673.7665034-.7695668 1.28-.58l2.81 1.05c.5175475.195017.780954.7709397.59 1.29l-2.92 7.79-2.673 3.208z" fill="#d25627"/><path id="Shape" d="m24 30c-.2651948-.0000566-.5195073-.1054506-.707-.293l-3.293-3.293-3.293 3.293c-.3923789.3789722-1.0160848.3735524-1.4018186-.0121814s-.3911536-1.0094397-.0121814-1.4018186l4-4c.3904999-.3903819 1.0235001-.3903819 1.414 0l4 4c.2859079.2859943.3714219.7160366.216678 1.0896546-.1547439.3736179-.5192821.6172591-.923678.6173454z" fill="#cb8252"/><path id="Shape" d="m6 6h-2c-.55228475 0-1-.44771525-1-1s.44771525-1 1-1h2c.55228475 0 1 .44771525 1 1s-.44771525 1-1 1z" fill="#7f8284"/><path id="Shape" d="m22 6h-12c-.55228475 0-1-.44771525-1-1s.44771525-1 1-1h12c.5522847 0 1 .44771525 1 1s-.4477153 1-1 1z" fill="#7f8284"/><circle id="Oval" cx="27" cy="54" fill="#e64c3c" r="5"/><path id="Shape" d="m25 55c-.5522847 0-1-.4477153-1-1-.0234737-.8026156.2850527-1.5793921.8528303-2.1471697s1.3445541-.876304 2.1471697-.8528303c.5522847-.0027614 1.0022386.4427153 1.005.995s-.4427153 1.0022386-.995 1.005c-.2739117-.0288437-.5463007.0668224-.742023.2606068-.1957222.1937844-.2940938.4652081-.267977.7393932 0 .5522847-.4477153 1-1 1z" fill="#fb7b76"/><rect id="Rectangle-path" fill="#ecf0f1" height="16" rx="2" transform="matrix(.707 .707 -.707 .707 24.531 -24.215)" width="33" x="24.996" y="9.504"/><path id="Shape" d="m32.657 14.492c-1.2127486-.0006627-2.3058146-.7314283-2.7699558-1.8518446-.4641412-1.1204162-.2080535-2.4100793.6489558-3.2681554.3910176-.39018915 1.0243108-.38951756 1.4145.00150003.3901891.39101759.3895176 1.02431077-.0015 1.41449997-.3902047.390639-.3899699 1.0236017.0005243 1.4139512.3904943.3903495 1.0234571.3903495 1.4139514 0 .3904942-.3903495.390729-1.0233122.0005243-1.4139512-.3789722-.3923789-.3735524-1.01608478.0121814-1.40181858.3857338-.38573379 1.0094397-.39115363 1.4018186-.01218142.8562956.858169 1.1119296 2.1473685.6478789 3.2673476-.4640507 1.119979-1.5565691 1.8505868-2.7688789 1.8516524z" fill="#e64c3c"/><path id="Shape" d="m36.9 11.08c-.4043959-.0000863-.7689341-.2437275-.923678-.6173454-.1547439-.373618-.0692299-.80366035.216678-1.0896546.187777-.18756826.2932867-.44209075.2932867-.7075s-.1055097-.51993174-.2932867-.7075c-.3947318-.37906371-1.0182682-.37906371-1.413 0-.187777.18756826-.2932867.44209075-.2932867.7075s.1055097.51993174.2932867.7075c.3789722.39237889.3735524 1.0160848-.0121814 1.4018186s-1.0094397.3911536-1.4018186.0121814c-.562719-.5626237-.8788593-1.32576248-.8788593-2.1215s.3161403-1.55887626.8788593-2.1215c1.1873934-1.13308211 3.0556066-1.13308211 4.243 0 .562719.56262374.8788593 1.32576248.8788593 2.1215s-.3161403 1.5588763-.8788593 2.1215c-.1879825.1880401-.4431123.2934746-.709.293z" fill="#e64c3c"/><path id="Shape" d="m39.021 21.687c-.3402638.0000608-.6572092-.1729025-.8412605-.4590922s-.209949-.6463285-.0687395-.9559078l2.431-5.35-5.35 2.432c-.502506.2265532-1.0935814.0037528-1.3215099-.4981309-.2279285-.5018836-.0067477-1.093567.4945099-1.3228691l7.778-3.533c.3793295-.1716344.8253131-.0902781 1.1196074.2042386.2942942.2945168.3753135.7405617.2033926 1.1197614l-3.535 7.776c-.1619777.3571871-.5178019.5867132-.91.587z" fill="#e64c3c"/><path id="Shape" d="m39.905 19.742c-.2653486.0007185-.5199469-.1047939-.707-.293l-3.182-3.182c-.2599566-.2510745-.3642126-.6228779-.2726972-.9725073.0915155-.3496295.3645604-.6226744.7141899-.7141899.3496294-.0915154.7214328.0127406.9725073.2726972l3.182 3.182c.2859079.2859943.3714219.7160366.216678 1.0896546-.1547439.3736179-.5192821.6172591-.923678.6173454z" fill="#e64c3c"/><path id="Shape" d="m43.264 25.929c-.2651948-.0000566-.5195073-.1054506-.707-.293l-2.122-2.121c-.3903819-.3904999-.3903819-1.0235001 0-1.414l5.657-5.658c.2510745-.2599566.6228779-.3642126.9725073-.2726972.3496295.0915155.6226744.3645604.7141899.7141899.0915154.3496294-.0127406.7214328-.2726972.9725073l-4.95 4.951 1.415 1.414c.2859079.2859943.3714219.7160366.216678 1.0896546-.1547439.3736179-.5192821.6172591-.923678.6173454z" fill="#e64c3c"/><path id="Shape" d="m47.506 30.172c-.2651948-.0000566-.5195073-.1054506-.707-.293l-2.121-2.122c-.3903819-.3904999-.3903819-1.0235001 0-1.414l5.656-5.656c.3921093-.3792591 1.0158267-.3742848 1.4018372.01118.3860104.3854649.391867 1.0091746.0131628 1.40182l-4.949 4.95 1.414 1.415c.2859079.2859943.3714219.7160366.216678 1.0896546-.1547439.3736179-.5192821.6172591-.923678.6173454z" fill="#e64c3c"/><path id="Shape" d="m50.334 27.343c-.2651948-.0000566-.5195073-.1054506-.707-.293l-2.121-2.121c-.3789722-.3923789-.3735524-1.0160848.0121814-1.4018186s1.0094397-.3911536 1.4018186-.0121814l2.122 2.121c.2860368.2861229.3714873.7164079.2164868 1.0901167-.1550004.3737088-.5199089.6172016-.9244868.6168833z" fill="#e64c3c"/><path id="Shape" d="m53.163 24.515c-.2651948-.0000566-.5195073-.1054506-.707-.293l-2.122-2.122c-.2525868-.2527654-.3511379-.6210837-.25853-.966213s.3623054-.6146361.7075-.707c.3451947-.0923638.7134432.0064476.96603.259213l2.121 2.121c.2859079.2859943.3714219.7160366.216678 1.0896546-.1547439.3736179-.5192821.6172591-.923678.6173454z" fill="#e64c3c"/><rect id="Rectangle-path" fill="#f9eab0" height="8" rx="1" width="12" x="14" y="28.5"/><rect id="Rectangle-path" fill="#cb8252" height="5" rx="1" width="20" x="26" y="40"/><path id="Shape" d="m32.66 40-2.92-7.79c-.190954-.5190603.0724525-1.094983.59-1.29l2.81-1.05c.5134966-.1895668 1.0839782.0689327 1.28.58l3.58 9.55z" fill="#e57e25"/></g></g></svg>