<svg height="512" viewBox="0 0 60 60" width="512" xmlns="http://www.w3.org/2000/svg"><g id="083---Garage-Sale"><path id="Shape" d="m57 0h-54c-1.65685425 0-3 1.34314575-3 3v4c0 1.65685425 1.34314575 3 3 3v48c0 1.1045695.8954305 2 2 2h50c1.1045695 0 2-.8954305 2-2v-30.251l2.113-2.113c1.1711458-1.1714996 1.1711458-3.0705004 0-4.242l-2.113-2.113v-9.281c1.6568542 0 3-1.34314575 3-3v-4c0-1.65685425-1.3431458-3-3-3zm-55 7v-4c0-.55228475.44771525-1 1-1h30.252l-6 6h-24.252c-.55228475 0-1-.44771525-1-1zm3 3h20.412c-.5511216.9246623-.5488158 2.0775495.006 3h-15.418c-1.1045695 0-2 .8954305-2 2v43h-3zm5 9h21.264l2 2h-23.264zm0-2v-2h17.264l2 2zm0 6h25.264l6.522 6.522-1.576-.588c-1.0304187-.38243-2.1763552.1382879-2.566 1.166l-.644 1.715-.643-1.715c-.3892418-1.0286432-1.5360101-1.5499827-2.567-1.167l-2.819 1.052c-.4970316.1861217-.8997034.5621688-1.119338 1.0453275s-.2382196 1.0338043-.051662 1.5306725l2.417 6.439h-4.217c-1.1045695 0-2 .8954305-2 2v3c.002145.7113268.3832487 1.3675874 1 1.722v2.368c-2.1531707.3643131-3.9376465 1.8711685-4.6574815 3.9328924-.719835 2.061724-.2610298 4.3518036 1.1974815 5.9771076h-13.54zm18 21v-3h18v3zm0 14c-2.209139 0-4-1.790861-4-4s1.790861-4 4-4 4 1.790861 4 4-1.790861 4-4 4zm9.557-19h-3.2l-2.677-7.144 2.8-1.055zm.51-4.338 1.443-3.855 2.813 1.052-2.653 7.079zm-5.607 23.338c1.4585113-1.625304 1.9173165-3.9153836 1.1974815-5.9771076-.719835-2.0617239-2.5043108-3.5685793-4.6574815-3.9328924v-2.09h16v12zm14.54 0v-12.278c.6167513-.3544126.997855-1.0106732 1-1.722v-3c0-1.1045695-.8954305-2-2-2h-4.217c2.629-7.016 2.484-6.538 2.524-6.957l2.078 2.078c.9571407.9627434 2.4449969 1.154539 3.615.466v23.413zm8 0h-3v-25.251l3-3zm2.7-33.778-8.486 8.485c-.3904999.3903819-1.0235001.3903819-1.414 0-15.548-15.548-10.29-10.346-11.42-11.42-5.458-5.458-3.6-3.617-4-4-5.458-5.458-3.6-3.617-4-4-1.119-1.118-1.38-1.265-1.38-1.793 0-.551.32-.734 1.364-1.778.741-.716-2.636 2.636 7.415-7.416.3903851-.38971594 1.0226149-.38971594 1.413 0l20.508 20.508c.3903819.3904999.3903819 1.0235001 0 1.414zm-2.7-6.941-7.281-7.281h7.281zm3-10.281c0 .55228475-.4477153 1-1 1h-11.281l-6-6h17.281c.5522847 0 1 .44771525 1 1z"/><path id="Shape" d="m28 36v-6c0-1.1045695-.8954305-2-2-2h-.586l-3.707-3.707c-.3904999-.3903819-1.0235001-.3903819-1.414 0l-3.707 3.707h-.586c-1.1045695 0-2 .8954305-2 2v6c0 1.1045695.8954305 2 2 2h10c1.1045695 0 2-.8954305 2-2zm-7-9.586 1.586 1.586h-3.172zm-5 3.586h10v6h-10z"/><path id="Shape" d="m5 6h2c.55228475 0 1-.44771525 1-1s-.44771525-1-1-1h-2c-.55228475 0-1 .44771525-1 1s.44771525 1 1 1z"/><path id="Shape" d="m11 6h12c.5522847 0 1-.44771525 1-1s-.4477153-1-1-1h-12c-.5522847 0-1 .44771525-1 1s.4477153 1 1 1z"/><path id="Shape" d="m28 51c-.8026156-.0234737-1.5793921.2850527-2.1471697.8528303s-.876304 1.3445541-.8528303 2.1471697c0 .5522847.4477153 1 1 1s1-.4477153 1-1c-.0261168-.2741851.0722548-.5456088.267977-.7393932.1957223-.1937844.4681113-.2894505.742023-.2606068.3572656-.0017863.6864396-.1940359.8635254-.5043301.1770858-.3102943.1751798-.6914921-.005-1s-.5112598-.4974562-.8685254-.4956699z"/><path id="Shape" d="m34.364 6.544c-.562719.56262374-.8788593 1.32576248-.8788593 2.1215s.3161403 1.5588763.8788593 2.1215c.3902047.390639.3899699 1.0236017-.0005243 1.4139512-.3904943.3903495-1.0234571.3903495-1.4139514 0-.3904942-.3903495-.390729-1.0233122-.0005243-1.4139512.187777-.1875683.2932867-.4420908.2932867-.7075 0-.26540925-.1055097-.51993174-.2932867-.7075-1.346-1.348-3.524 2.134-1.414 4.242.7532234.7798698 1.8686337 1.0926378 2.917522.8180915 1.0488883-.2745464 1.8680231-1.0936812 2.1425695-2.1425695.2745463-1.0488883-.0382217-2.1642986-.8180915-2.917522-.187777-.18756826-.2932867-.44209075-.2932867-.7075s.1055097-.51993174.2932867-.7075c.3947318-.37906371 1.0182682-.37906371 1.413 0 .187777.18756826.2932867.44209075.2932867.7075s-.1055097.51993174-.2932867.7075c-.3903819.39049985-.3903819 1.0235001 0 1.414 1.35 1.35 3.518-2.139 1.415-4.243-1.1873959-1.13153046-3.0541378-1.13109029-4.241.001z"/><path id="Shape" d="m34.868 16.857c.1091141.2420139.3099828.4307083.5583376.5244979.2483549.0937896.5238111.0849762.7656624-.0244979l1.313-.6 2.2 2.2-.6 1.313c-.1521219.3257541-.1176683.7080959.0902387 1.0014071s.5572636.4524412.9150139.4167839c.3577504-.0356574.6688247-.2606132.8147474-.589191l3.535-7.779c.1669828-.3774454.0849214-.8187026-.2065925-1.1108805-.2915138-.2921779-.7325832-.3752431-1.1104075-.2091195l-7.778 3.535c-.5017247.2283583-.7240261.8196711-.497 1.322zm5.723.158-1.141-1.142 2.092-.951z"/><path id="Shape" d="m41.142 22.808c0 .551.155.569 2.415 2.828.3923789.3789722 1.0160848.3735524 1.4018186-.0121814s.3911536-1.0094397.0121814-1.4018186l-1.415-1.414 4.95-4.951c.2599566-.2510745.3642126-.6228779.2726972-.9725073-.0915155-.3496295-.3645604-.6226744-.7141899-.7141899-.3496294-.0915154-.7214328.0127406-.9725073.2726972l-5.657 5.657c-.1877946.1877377-.2932088.4424587-.293.708z"/><path id="Shape" d="m45.678 27.757c2.3 2.3 2.284 2.415 2.828 2.415.4043959-.0000863.7689341-.2437275.923678-.6173454.1547439-.373618.0692299-.8036603-.216678-1.0896546l-1.413-1.415 1.414-1.415c1.538 1.538 1.595 1.708 2.121 1.708.4045779.0003183.7694864-.2431745.9244868-.6168833.1550005-.3737088.06955-.8039938-.2164868-1.0901167l-1.415-1.414 1.415-1.415c1.538 1.538 1.595 1.708 2.121 1.708.4043959-.0000863.7689341-.2437275.923678-.6173454.1547439-.373618.0692299-.8036603-.216678-1.0896546l-2.121-2.121c-.1875683-.187777-.4420908-.2932867-.7075-.2932867s-.5199317.1055097-.7075.2932867l-5.656 5.656c-.3906582.3902237-.3911059 1.0232241-.001 1.414z"/></g></svg>